<svg width="70" height="70" viewBox="0 0 70 70" fill="none" xmlns="http://www.w3.org/2000/svg">
<path d="M61.6623 12.3265C52.7406 1.83829 38.9708 -2.08589 26.4608 1.05034C21.4078 2.31685 16.5619 4.73635 12.3258 8.34001C-2.39898 20.8605 -4.18421 42.9476 8.33912 57.6739C17.2586 68.1599 31.0329 72.0885 43.5407 68.9478C48.5959 67.6858 53.4396 65.2596 57.6778 61.6604C72.3982 49.1399 74.1834 27.0528 61.6623 12.3265ZM62.3769 46.2998C59.7881 44.4924 56.7273 43.8112 53.3617 44.3699C53.1302 39.8025 52.5158 35.4131 51.6744 31.3064C54.419 31.0237 59.2338 30.7165 64.3713 31.2441C65.0169 36.3368 64.3402 41.532 62.3769 46.2998ZM6.10424 31.2218C6.82323 28.3705 10.9791 21.3435 17.4634 20.146C21.8931 19.3313 26.7479 19.4203 31.4381 19.5005C35.7564 19.5761 39.8545 19.6117 43.5629 19.0575C44.4845 21.664 45.3927 24.5598 46.194 27.6716C24.7891 31.7315 12.1522 41.0067 7.23726 45.3404C6.38694 43.0634 4.77311 36.4949 6.10424 31.2218ZM46.4567 13.9558C45.2525 10.9131 44.0927 8.38676 43.1623 6.497C45.7377 7.23376 48.1996 8.32221 50.4946 9.74008C50.4278 12.2286 48.1574 13.4127 46.4567 13.9558ZM47.2046 32.012C48.0928 36.2745 48.7317 40.8531 48.9209 45.6031C43.5318 47.4438 40.4911 49.3603 37.2924 51.3725C34.8082 52.9373 32.2416 54.5577 28.2616 56.3183C23.6227 58.3728 19.5246 57.8453 16.6821 56.8904C13.7816 55.221 11.4199 52.3897 9.46101 49.3425C13.2986 45.8412 25.6528 36.0697 47.2046 32.012ZM57.5955 15.7833C60.2689 18.9262 62.3346 22.7012 63.4854 26.4117C57.364 26.1335 52.3578 26.7456 50.6682 26.937C49.8669 23.7652 48.952 20.807 48.0193 18.1271C50.5147 17.2701 53.2771 15.5496 54.419 12.6226C55.5365 13.593 56.6161 14.6281 57.5955 15.7833ZM15.7783 12.4022C19.2909 9.4151 23.3199 7.33838 27.7541 6.22768C31.0418 5.40188 34.3608 5.18375 37.5996 5.46421C38.2718 6.6862 40.0147 10.0116 41.9513 14.8083C38.7571 15.1734 35.2222 15.12 31.516 15.051C26.6055 14.9575 21.5236 14.8684 16.6531 15.7655C14.2602 16.2084 12.1945 17.2123 10.407 18.4855C11.8829 16.273 13.6525 14.2096 15.7783 12.4022ZM42.2407 63.7727C35.6585 65.4221 28.9583 64.7476 23.0417 62.13C25.2209 61.9876 27.5804 61.4912 30.0624 60.3916C34.3385 58.4952 37.1655 56.7168 39.663 55.1431C42.4321 53.4002 44.9297 51.8444 48.9498 50.333C48.8541 54.1036 48.44 57.9566 47.6231 61.8095C45.9047 62.6309 44.1194 63.3031 42.2407 63.7727ZM54.2165 57.596C53.729 58.0122 53.2103 58.375 52.6983 58.7467C53.1925 55.4191 53.4285 52.1226 53.4552 48.8996C56.1308 48.3008 58.4436 48.766 60.3579 50.3219C58.7508 52.9929 56.7207 55.4658 54.2165 57.596Z" fill="#17408B"/>
</svg>
