<svg width="40" height="40" viewBox="0 0 40 40" fill="none" xmlns="http://www.w3.org/2000/svg">
<path d="M35.234 7.04375C30.1362 1.05056 22.2682 -1.1918 15.1202 0.600306C12.2329 1.32402 9.46401 2.70657 7.04358 4.76578C-1.37004 11.9202 -2.3901 24.5413 4.76561 32.9562C9.86212 38.9481 17.7326 41.193 24.8794 39.3984C27.7679 38.6772 30.5356 37.2908 32.9573 35.2342C41.3684 28.0797 42.3884 15.4586 35.234 7.04375ZM35.6423 26.4568C34.1631 25.424 32.4142 25.0348 30.4911 25.354C30.3588 22.7441 30.0078 20.2359 29.527 17.8892C31.0952 17.7277 33.8463 17.5522 36.7819 17.8536C37.1507 20.7637 36.7641 23.7324 35.6423 26.4568ZM3.48862 17.8409C3.89945 16.2116 6.27409 12.1962 9.97913 11.5119C12.5102 11.0464 15.2842 11.0973 17.9641 11.1431C20.4316 11.1863 22.7732 11.2067 24.8922 10.89C25.4187 12.3794 25.9377 14.0341 26.3956 15.8122C14.165 18.1322 6.94438 23.4322 4.13602 25.9086C3.65015 24.6074 2.72803 20.8541 3.48862 17.8409ZM26.5456 7.97479C25.8575 6.2361 25.1949 4.79249 24.6632 3.71265C26.1348 4.13365 27.5415 4.75561 28.8529 5.56581C28.8147 6.98779 27.5174 7.66444 26.5456 7.97479ZM26.973 18.2924C27.4805 20.7281 27.8455 23.3444 27.9536 26.0587C24.8744 27.1105 23.1369 28.2056 21.3092 29.3554C19.8898 30.2496 18.4233 31.1755 16.1491 32.1816C13.4985 33.3556 11.1569 33.0541 9.53269 32.5085C7.87541 31.5546 6.52592 29.9367 5.40665 28.1955C7.59941 26.1948 14.6585 20.6111 26.973 18.2924ZM32.9102 9.01902C34.4378 10.8149 35.6181 12.9721 36.2757 15.0923C32.778 14.9334 29.9174 15.2831 28.9521 15.3925C28.4942 13.5801 27.9714 11.8897 27.4385 10.3583C28.8643 9.86865 30.4427 8.88547 31.0952 7.21292C31.7337 7.76747 32.3506 8.3589 32.9102 9.01902ZM9.0163 7.087C11.0234 5.38011 13.3255 4.19343 15.8591 3.55875C17.7377 3.08687 19.6341 2.96223 21.4847 3.12248C21.8689 3.82076 22.8648 5.72098 23.9713 8.46192C22.1461 8.67052 20.1264 8.63999 18.0086 8.60056C15.2028 8.54714 12.2991 8.49627 9.51616 9.00884C8.14887 9.26195 6.96854 9.83558 5.94721 10.5631C6.79048 9.29883 7.80164 8.11978 9.0163 7.087ZM24.1367 36.4412C20.3756 37.3837 16.5472 36.9983 13.1665 35.5025C14.4117 35.4211 15.7599 35.1375 17.1781 34.5092C19.6214 33.4255 21.2367 32.4093 22.6638 31.51C24.246 30.5141 25.6731 29.6251 27.9702 28.7615C27.9155 30.9161 27.6789 33.1177 27.2121 35.3194C26.2302 35.7887 25.2101 36.1728 24.1367 36.4412ZM30.9795 32.9117C30.7009 33.1495 30.4046 33.3568 30.112 33.5692C30.3944 31.6677 30.5292 29.7841 30.5445 27.9424C32.0733 27.6002 33.3948 27.866 34.4887 28.7551C33.5703 30.2814 32.4104 31.6945 30.9795 32.9117Z" fill="#17408B"/>
</svg>
