<svg width="42" height="42" viewBox="0 0 64 64" fill="none" xmlns="http://www.w3.org/2000/svg">
<path d="M32 10.668C43.7812 10.668 53.332 20.2188 53.332 32C53.332 41.4727 47.1562 49.4961 38.6133 52.2812C38.6172 52.2734 38.6211 52.2617 38.6211 52.2617C38.6211 52.2617 37.1797 51.5898 37.2109 50.3828C37.2461 49.0586 37.2109 45.9648 37.2109 44.832C37.2109 42.8828 35.9766 41.5 35.9766 41.5C35.9766 41.5 45.6523 41.6094 45.6523 31.2852C45.6523 27.3008 43.5703 25.2305 43.5703 25.2305C43.5703 25.2305 44.6641 20.9766 43.1914 19.1758C41.543 18.9961 38.5859 20.7539 37.3242 21.5742C37.3242 21.5742 35.3242 20.7539 32 20.7539C28.6719 20.7539 26.6719 21.5742 26.6719 21.5742C25.4141 20.7539 22.457 18.9961 20.8086 19.1758C19.3359 20.9805 20.4297 25.2305 20.4297 25.2305C20.4297 25.2305 18.3477 27.3047 18.3477 31.2852C18.3477 41.6094 28.0195 41.5 28.0195 41.5C28.0195 41.5 27.0469 42.6016 26.832 44.2188C26.1602 44.4492 25.1641 44.7344 24.3633 44.7344C22.2617 44.7344 20.6641 42.6914 20.082 41.7461C19.5039 40.8164 18.3203 40.0352 17.2188 40.0352C16.4922 40.0352 16.1367 40.3984 16.1367 40.8125C16.1367 41.2266 17.1562 41.5195 17.8281 42.2891C19.2461 43.9102 19.2188 47.5625 24.2695 47.5625C24.8164 47.5625 25.9336 47.4258 26.7773 47.3125C26.7734 48.4648 26.7695 49.6758 26.7891 50.3828C26.8203 51.5898 25.3789 52.2617 25.3789 52.2617C25.3789 52.2617 25.3828 52.2734 25.3867 52.2812C16.8438 49.4961 10.668 41.4727 10.668 32C10.668 20.2188 20.2188 10.668 32 10.668Z" fill="white"/>
</svg>
