<svg width="86" height="180" viewBox="0 0 86 196" fill="none" xmlns="http://www.w3.org/2000/svg">
<g clip-path="url(#clip0_2_55)">
<path d="M20.0803 0H65.9197C77.0429 0 86 8.9964 86 20.1684V175.832C86 187.004 77.0429 196 65.9197 196H20.0803C8.95711 196 0 187.004 0 175.832V20.1684C0 8.9964 8.95711 0 20.0803 0Z" fill="white"/>
<path d="M54.5428 35.9268L54.6013 36.5932C55.9868 37.4164 56.7089 38.0828 58.1139 38.9844C61.8216 41.356 66.388 45.5504 65.8221 59.976C66.8954 63.1316 67.3637 69.286 68.3004 71.246C70.2128 75.1268 71.5398 77.6552 72.1057 81.2812C72.1057 81.2812 72.6717 86.9652 73.3937 87.3768C77.2185 88.2588 76.1257 88.6312 76.6721 89.3368C77.2771 90.1012 79.5017 90.062 79.5017 92.1396C80.2823 93.1784 80.8872 94.2172 81.297 95.354V20.3252C81.297 11.7404 74.3889 4.802 65.8611 4.802H51.1278C53.489 5.6448 54.8355 6.664 55.6161 8.2516C57.509 8.4084 59.7336 12.6812 56.2405 19.012C57.7822 20.09 56.5918 21.658 55.4795 23.4612C55.1282 24.0296 54.7965 25.0684 53.7427 25.0096C52.3572 27.8908 50.757 30.5956 49.5276 30.7524C49.1763 31.2032 48.9226 32.4184 49.469 32.9868C51.2644 33.81 53.4305 34.888 54.5428 35.9268Z" fill="#C80F2E"/>
<path d="M68.3004 191.002L68.1443 191.041C74.8963 186.906 70.7202 179.085 69.4323 174.46L69.686 173.676C70.0372 173.048 69.3152 171.559 69.3152 171.559C68.4761 170.873 68.2809 167.012 67.8321 165.248C67.1101 162.366 69.1201 157.349 69.1201 155.644C69.1201 153.938 67.8321 151.606 65.5099 148.627C64.944 147.96 63.2462 133.417 61.7436 129.713C59.636 124.636 59.0116 125.46 56.4942 119.364C54.5818 115.111 56.0844 108.819 51.7522 94.2368L52.728 93.3156C52.728 93.3156 49.2739 80.6148 48.1421 77.1456C47.0493 73.6764 45.0002 73.4608 45.0002 73.4608L45.1173 71.6576C45.2734 71.1284 49.3324 60.5444 49.6837 60.1916C49.7227 59.976 55.538 55.958 55.6161 56.5656C56.0844 59.1528 58.3481 72.324 59.3238 74.4016C60.2995 76.5184 63.656 82.9668 65.1977 86.9652C59.1872 88.4548 54.6989 93.9036 54.6989 100.391C54.6989 108.035 60.8655 114.248 68.4761 114.248C74.2914 114.248 79.3261 110.622 81.3361 105.507L81.297 175.694C81.2775 183.456 75.7159 189.865 68.3004 191.002Z" fill="#C80F2E"/>
<path d="M46.2687 4.802C41.2339 6.762 40.5509 8.9376 40.3558 15.9544C39.5167 16.0524 37.7409 15.2292 38.3458 19.4824C38.3458 19.4824 38.658 22.3244 39.7899 21.854C38.9117 28.0476 39.6143 29.596 35.5162 30.0272C34.6381 30.1252 33.5648 30.184 32.2378 30.2428L31.828 30.8112C26.2274 31.3404 23.4563 30.9876 19.8462 35.77C18.4606 37.5928 16.9775 40.1996 15.1627 43.8844C15.1627 43.8844 13.504 48.02 12.9966 49.7252C11.3964 53.0964 7.47402 60.5836 6.30316 65.3856C5.93238 67.032 5.21035 67.5416 6.24461 69.8936C7.78625 73.304 5.22986 74.186 13.9723 73.9312V75.95C13.9723 75.95 11.6501 77.9688 11.1427 79.1644C10.6744 80.3992 9.32789 86.4164 9.38643 89.2976C9.54255 96.7848 15.6115 103.037 17.4069 110.485L21.4659 111.054C23.671 116.13 33.2916 129.83 35.5162 132.045L35.6138 132.143C36.1212 133.437 38.5995 135.044 40.0436 136.651C40.9217 137.494 44.9807 141.924 50.3862 146.118C52.3767 147.666 54.5037 149.176 56.7284 150.469C56.6698 150.43 58.0554 153.213 58.7384 155.487C55.9673 157.721 61.3533 161.837 62.973 168.619C63.0706 169.54 61.3923 170.442 63.8902 172.696C63.7341 182.946 60.6313 188.317 65.8416 191.159H19.8657C11.5135 190.963 4.742 184.083 4.742 175.655V20.3252C4.742 11.8384 11.494 4.9784 19.8657 4.802H46.2687Z" fill="#1D4289"/>
</g>
<defs>
<clipPath id="clip0_2_55">
<rect width="86" height="196" fill="white"/>
</clipPath>
</defs>
</svg>
