<svg width="81" height="46" viewBox="0 0 81 46" fill="none" xmlns="http://www.w3.org/2000/svg">
<path d="M1.768 26V7.8H5.096L13.65 20.618V7.8H16.978V26H13.65L5.096 13.208V26H1.768ZM20.5063 26V7.8H27.8123C29.7016 7.8 31.1403 8.242 32.1283 9.126C33.1336 9.99267 33.6363 11.1107 33.6363 12.48C33.6363 13.624 33.3243 14.5427 32.7003 15.236C32.0936 15.912 31.3483 16.3713 30.4643 16.614C31.5043 16.822 32.3623 17.342 33.0383 18.174C33.7143 18.9887 34.0523 19.942 34.0523 21.034C34.0523 22.4727 33.5323 23.66 32.4923 24.596C31.4523 25.532 29.9789 26 28.0723 26H20.5063ZM23.8343 15.444H27.3183C28.2543 15.444 28.9736 15.2273 29.4763 14.794C29.9789 14.3607 30.2303 13.7453 30.2303 12.948C30.2303 12.1853 29.9789 11.5873 29.4763 11.154C28.9909 10.7033 28.2543 10.478 27.2663 10.478H23.8343V15.444ZM23.8343 23.296H27.5523C28.5403 23.296 29.3029 23.0707 29.8403 22.62C30.3949 22.152 30.6723 21.502 30.6723 20.67C30.6723 19.8207 30.3863 19.1533 29.8143 18.668C29.2423 18.1827 28.4709 17.94 27.5003 17.94H23.8343V23.296ZM35.5863 26L42.2423 7.8H45.9863L52.6423 26H49.1063L47.6503 21.788H40.5523L39.0703 26H35.5863ZM41.4623 19.188H46.7403L44.0883 11.622L41.4623 19.188Z" fill="#F9F9F9"/>
<path d="M5.036 41V31.2H8.256C9.02133 31.2 9.65133 31.326 10.146 31.578C10.6407 31.83 11.0047 32.1707 11.238 32.6C11.4807 33.0293 11.602 33.5147 11.602 34.056C11.602 34.588 11.4853 35.0687 11.252 35.498C11.0187 35.9273 10.6547 36.2727 10.16 36.534C9.66533 36.786 9.03067 36.912 8.256 36.912H6.212V41H5.036ZM6.212 35.918H8.228C9.012 35.918 9.56733 35.7547 9.894 35.428C10.23 35.092 10.398 34.6347 10.398 34.056C10.398 33.468 10.23 33.0107 9.894 32.684C9.56733 32.348 9.012 32.18 8.228 32.18H6.212V35.918ZM13.0734 41V30.92H14.2494V41H13.0734ZM18.4869 41.168C17.9083 41.168 17.4276 41.07 17.0449 40.874C16.6623 40.678 16.3776 40.4167 16.1909 40.09C16.0043 39.7633 15.9109 39.4087 15.9109 39.026C15.9109 38.3167 16.1816 37.7707 16.7229 37.388C17.2643 37.0053 18.0016 36.814 18.9349 36.814H20.8109V36.73C20.8109 36.1233 20.6523 35.666 20.3349 35.358C20.0176 35.0407 19.5929 34.882 19.0609 34.882C18.6036 34.882 18.2069 34.9987 17.8709 35.232C17.5443 35.456 17.3389 35.7873 17.2549 36.226H16.0509C16.0976 35.722 16.2656 35.2973 16.5549 34.952C16.8536 34.6067 17.2223 34.3453 17.6609 34.168C18.0996 33.9813 18.5663 33.888 19.0609 33.888C20.0316 33.888 20.7596 34.1493 21.2449 34.672C21.7396 35.1853 21.9869 35.8713 21.9869 36.73V41H20.9369L20.8669 39.754C20.6709 40.146 20.3816 40.482 19.9989 40.762C19.6256 41.0327 19.1216 41.168 18.4869 41.168ZM18.6689 40.174C19.1169 40.174 19.4996 40.0573 19.8169 39.824C20.1436 39.5907 20.3909 39.2873 20.5589 38.914C20.7269 38.5407 20.8109 38.1487 20.8109 37.738V37.724H19.0329C18.3423 37.724 17.8523 37.8453 17.5629 38.088C17.2829 38.3213 17.1429 38.6153 17.1429 38.97C17.1429 39.334 17.2736 39.628 17.5349 39.852C17.8056 40.0667 18.1836 40.174 18.6689 40.174ZM24.3021 44.08L26.0241 40.328H25.6181L22.8601 34.056H24.1341L26.4301 39.46L28.8661 34.056H30.0841L25.5341 44.08H24.3021ZM33.7911 41.168C33.1285 41.168 32.5405 41.0187 32.0271 40.72C31.5138 40.412 31.1078 39.9873 30.8091 39.446C30.5198 38.9047 30.3751 38.2653 30.3751 37.528C30.3751 36.8 30.5198 36.1653 30.8091 35.624C31.0985 35.0733 31.4998 34.6487 32.0131 34.35C32.5358 34.042 33.1378 33.888 33.8191 33.888C34.4911 33.888 35.0698 34.042 35.5551 34.35C36.0498 34.6487 36.4278 35.0453 36.6891 35.54C36.9505 36.0347 37.0811 36.5667 37.0811 37.136C37.0811 37.2387 37.0765 37.3413 37.0671 37.444C37.0671 37.5467 37.0671 37.6633 37.0671 37.794H31.5371C31.5651 38.326 31.6865 38.7693 31.9011 39.124C32.1251 39.4693 32.4005 39.7307 32.7271 39.908C33.0631 40.0853 33.4178 40.174 33.7911 40.174C34.2765 40.174 34.6825 40.062 35.0091 39.838C35.3358 39.614 35.5738 39.3107 35.7231 38.928H36.8851C36.6985 39.572 36.3391 40.1087 35.8071 40.538C35.2845 40.958 34.6125 41.168 33.7911 41.168ZM33.7911 34.882C33.2311 34.882 32.7318 35.0547 32.2931 35.4C31.8638 35.736 31.6165 36.2307 31.5511 36.884H35.9191C35.8911 36.2587 35.6765 35.7687 35.2751 35.414C34.8738 35.0593 34.3791 34.882 33.7911 34.882ZM38.6398 41V34.056H39.7038L39.8018 35.386C40.0165 34.9287 40.3432 34.5647 40.7818 34.294C41.2205 34.0233 41.7618 33.888 42.4058 33.888V35.12H42.0838C41.6732 35.12 41.2952 35.1947 40.9498 35.344C40.6045 35.484 40.3292 35.7267 40.1238 36.072C39.9185 36.4173 39.8158 36.8933 39.8158 37.5V41H38.6398ZM46.3858 41.168C45.5551 41.168 44.8644 40.958 44.3138 40.538C43.7631 40.118 43.4411 39.5487 43.3478 38.83H44.5518C44.6264 39.194 44.8178 39.5113 45.1258 39.782C45.4431 40.0433 45.8678 40.174 46.3998 40.174C46.8944 40.174 47.2584 40.0713 47.4918 39.866C47.7251 39.6513 47.8418 39.3993 47.8418 39.11C47.8418 38.69 47.6878 38.41 47.3798 38.27C47.0811 38.13 46.6564 38.004 46.1058 37.892C45.7324 37.8173 45.3591 37.71 44.9858 37.57C44.6124 37.43 44.2998 37.234 44.0478 36.982C43.7958 36.7207 43.6698 36.38 43.6698 35.96C43.6698 35.3533 43.8938 34.8587 44.3418 34.476C44.7991 34.084 45.4151 33.888 46.1898 33.888C46.9271 33.888 47.5291 34.0747 47.9958 34.448C48.4718 34.812 48.7471 35.3347 48.8218 36.016H47.6598C47.6131 35.6613 47.4591 35.386 47.1978 35.19C46.9458 34.9847 46.6051 34.882 46.1758 34.882C45.7558 34.882 45.4291 34.9707 45.1958 35.148C44.9718 35.3253 44.8598 35.5587 44.8598 35.848C44.8598 36.128 45.0044 36.3473 45.2938 36.506C45.5924 36.6647 45.9938 36.8 46.4978 36.912C46.9271 37.0053 47.3331 37.122 47.7158 37.262C48.1078 37.3927 48.4251 37.5933 48.6678 37.864C48.9198 38.1253 49.0458 38.508 49.0458 39.012C49.0551 39.6373 48.8171 40.1553 48.3318 40.566C47.8558 40.9673 47.2071 41.168 46.3858 41.168Z" fill="#F9F9F9"/>
<g clip-path="url(#clip0_17_128)">
<path d="M65.6698 0H76.3302C78.9169 0 81 2.1114 81 4.7334V41.2666C81 43.8886 78.9169 46 76.3302 46H65.6698C63.083 46 61 43.8886 61 41.2666V4.7334C61 2.1114 63.083 0 65.6698 0Z" fill="white"/>
<path d="M73.6844 8.43182L73.698 8.58822C74.0202 8.78142 74.1881 8.93782 74.5148 9.14942C75.3771 9.70602 76.4391 10.6904 76.3075 14.076C76.5571 14.8166 76.666 16.261 76.8838 16.721C77.3286 17.6318 77.6372 18.2252 77.7688 19.0762C77.7688 19.0762 77.9004 20.4102 78.0683 20.5068C78.9578 20.7138 78.7036 20.8012 78.8307 20.9668C78.9714 21.1462 79.4888 21.137 79.4888 21.6246C79.6703 21.8684 79.811 22.1122 79.9063 22.379V4.77021C79.9063 2.75541 78.2997 1.12701 76.3165 1.12701H72.8902C73.4393 1.32481 73.7524 1.56401 73.934 1.93661C74.3742 1.97341 74.8915 2.97621 74.0792 4.46201C74.4377 4.71501 74.1609 5.08301 73.9022 5.50621C73.8205 5.63961 73.7433 5.88341 73.4983 5.86962C73.1761 6.54581 72.8039 7.18061 72.518 7.21741C72.4363 7.32322 72.3773 7.60842 72.5044 7.74182C72.9219 7.93502 73.4257 8.18802 73.6844 8.43182Z" fill="#C80F2E"/>
<path d="M76.8838 44.827L76.8475 44.8362C78.4178 43.8656 77.4466 42.0302 77.147 40.9446L77.206 40.7606C77.2877 40.6134 77.1198 40.2638 77.1198 40.2638C76.9247 40.1028 76.8793 39.1966 76.7749 38.7826C76.607 38.1064 77.0744 36.9288 77.0744 36.5286C77.0744 36.1284 76.7749 35.581 76.2349 34.8818C76.1033 34.7254 75.7084 31.3122 75.359 30.4428C74.8689 29.2514 74.7236 29.4446 74.1382 28.014C73.6935 27.0158 74.0429 25.5392 73.0354 22.1168L73.2623 21.9006C73.2623 21.9006 72.4591 18.9198 72.1958 18.1056C71.9417 17.2914 71.4652 17.2408 71.4652 17.2408L71.4924 16.8176C71.5287 16.6934 72.4727 14.2094 72.5544 14.1266C72.5634 14.076 73.9158 13.133 73.934 13.2756C74.0429 13.8828 74.5693 16.974 74.7962 17.4616C75.0232 17.9584 75.8037 19.4718 76.1623 20.4102C74.7645 20.7598 73.7207 22.0386 73.7207 23.5612C73.7207 25.3552 75.1548 26.8134 76.9247 26.8134C78.2771 26.8134 79.4479 25.9624 79.9154 24.7618L79.9063 41.2344C79.9018 43.056 78.6084 44.5602 76.8838 44.827Z" fill="#C80F2E"/>
<path d="M71.7601 1.12701C70.5893 1.58701 70.4304 2.09761 70.3851 3.74441C70.1899 3.76741 69.7769 3.57421 69.9176 4.57241C69.9176 4.57241 69.9902 5.23941 70.2535 5.12901C70.0492 6.58261 70.2126 6.94601 69.2596 7.04721C69.0554 7.07021 68.8058 7.08401 68.4972 7.09781L68.4019 7.23121C67.0994 7.35541 66.4549 7.27261 65.6154 8.39501C65.2932 8.82281 64.9483 9.43461 64.5262 10.2994C64.5262 10.2994 64.1405 11.27 64.0225 11.6702C63.6503 12.4614 62.7381 14.2186 62.4658 15.3456C62.3796 15.732 62.2117 15.8516 62.4522 16.4036C62.8107 17.204 62.2162 17.411 64.2494 17.3512V17.825C64.2494 17.825 63.7093 18.2988 63.5913 18.5794C63.4824 18.8692 63.1693 20.2814 63.1829 20.9576C63.2192 22.7148 64.6306 24.1822 65.0481 25.9302L65.992 26.0636C66.5049 27.255 68.7422 30.4704 69.2596 30.9902L69.2823 31.0132C69.4003 31.3168 69.9766 31.694 70.3124 32.0712C70.5167 32.269 71.4606 33.3086 72.7177 34.293C73.1806 34.6564 73.6753 35.0106 74.1926 35.3142C74.179 35.305 74.5012 35.9582 74.6601 36.4918C74.0156 37.0162 75.2682 37.9822 75.6449 39.5738C75.6676 39.79 75.2773 40.0016 75.8582 40.5306C75.8219 42.9364 75.1003 44.1968 76.312 44.8638H65.6199C63.6776 44.8178 62.1028 43.2032 62.1028 41.2252V4.77021C62.1028 2.77841 63.673 1.16841 65.6199 1.12701H71.7601Z" fill="#1D4289"/>
</g>
<defs>
<clipPath id="clip0_17_128">
<rect width="20" height="46" fill="white" transform="translate(61)"/>
</clipPath>
</defs>
</svg>
